<mxfile host="app.diagrams.net" agent="Mozilla/5.0 (Windows NT 10.0; Win64; x64) AppleWebKit/537.36 (KHTML, like Gecko) Chrome/131.0.0.0 Safari/537.36 Edg/131.0.0.0" version="25.0.3">
  <diagram name="Страница — 1" id="Wn4MzHjDh_eeT6amsvVP">
    <mxGraphModel dx="853" dy="457" grid="1" gridSize="10" guides="1" tooltips="1" connect="1" arrows="1" fold="1" page="1" pageScale="1" pageWidth="827" pageHeight="1169" math="0" shadow="0">
      <root>
        <mxCell id="0" />
        <mxCell id="1" parent="0" />
        <mxCell id="HTtT-cJyc6BqQwZnjjay-3" value="" style="endArrow=none;dashed=1;html=1;rounded=0;" parent="1" source="JPwpfQolr1Nf_6mwY6Vp-10" edge="1">
          <mxGeometry width="50" height="50" relative="1" as="geometry">
            <mxPoint x="254.79999999999998" y="690" as="sourcePoint" />
            <mxPoint x="254.79999999999998" y="360" as="targetPoint" />
          </mxGeometry>
        </mxCell>
        <mxCell id="JPwpfQolr1Nf_6mwY6Vp-1" value="Форма авторизации" style="rounded=0;whiteSpace=wrap;html=1;" parent="1" vertex="1">
          <mxGeometry x="424" y="310" width="116" height="50" as="geometry" />
        </mxCell>
        <mxCell id="JPwpfQolr1Nf_6mwY6Vp-2" value="&lt;span style=&quot;&quot; lang=&quot;RU&quot;&gt;&lt;font style=&quot;font-size: 11px;&quot; face=&quot;Helvetica&quot;&gt;Администратор&lt;/font&gt;&lt;/span&gt;" style="shape=umlActor;verticalLabelPosition=bottom;verticalAlign=top;html=1;" parent="1" vertex="1">
          <mxGeometry x="240" y="280" width="30" height="60" as="geometry" />
        </mxCell>
        <mxCell id="JPwpfQolr1Nf_6mwY6Vp-4" value="Раздел услуг" style="rounded=0;whiteSpace=wrap;html=1;" parent="1" vertex="1">
          <mxGeometry x="640" y="310" width="116" height="50" as="geometry" />
        </mxCell>
        <mxCell id="JPwpfQolr1Nf_6mwY6Vp-5" value="БД" style="strokeWidth=2;html=1;shape=mxgraph.flowchart.database;whiteSpace=wrap;" parent="1" vertex="1">
          <mxGeometry x="830.75" y="305" width="60" height="60" as="geometry" />
        </mxCell>
        <mxCell id="JPwpfQolr1Nf_6mwY6Vp-6" value="" style="endArrow=none;dashed=1;html=1;rounded=0;" parent="1" source="JPwpfQolr1Nf_6mwY6Vp-12" edge="1">
          <mxGeometry width="50" height="50" relative="1" as="geometry">
            <mxPoint x="481.79999999999995" y="690" as="sourcePoint" />
            <mxPoint x="481.79999999999995" y="360" as="targetPoint" />
          </mxGeometry>
        </mxCell>
        <mxCell id="JPwpfQolr1Nf_6mwY6Vp-8" value="" style="endArrow=none;dashed=1;html=1;rounded=0;" parent="1" edge="1">
          <mxGeometry width="50" height="50" relative="1" as="geometry">
            <mxPoint x="698.16" y="690" as="sourcePoint" />
            <mxPoint x="698.16" y="360" as="targetPoint" />
          </mxGeometry>
        </mxCell>
        <mxCell id="JPwpfQolr1Nf_6mwY6Vp-9" value="" style="endArrow=none;dashed=1;html=1;rounded=0;" parent="1" edge="1">
          <mxGeometry width="50" height="50" relative="1" as="geometry">
            <mxPoint x="860.1599999999999" y="690" as="sourcePoint" />
            <mxPoint x="860.1599999999999" y="360" as="targetPoint" />
          </mxGeometry>
        </mxCell>
        <mxCell id="JPwpfQolr1Nf_6mwY6Vp-11" value="" style="endArrow=none;dashed=1;html=1;rounded=0;" parent="1" target="JPwpfQolr1Nf_6mwY6Vp-10" edge="1">
          <mxGeometry width="50" height="50" relative="1" as="geometry">
            <mxPoint x="254.79999999999998" y="690" as="sourcePoint" />
            <mxPoint x="254.79999999999998" y="360" as="targetPoint" />
          </mxGeometry>
        </mxCell>
        <mxCell id="JPwpfQolr1Nf_6mwY6Vp-10" value="" style="rounded=0;whiteSpace=wrap;html=1;" parent="1" vertex="1">
          <mxGeometry x="246.25" y="380" width="17.5" height="290" as="geometry" />
        </mxCell>
        <mxCell id="JPwpfQolr1Nf_6mwY6Vp-13" value="" style="endArrow=none;dashed=1;html=1;rounded=0;" parent="1" target="JPwpfQolr1Nf_6mwY6Vp-12" edge="1">
          <mxGeometry width="50" height="50" relative="1" as="geometry">
            <mxPoint x="481.79999999999995" y="690" as="sourcePoint" />
            <mxPoint x="481.79999999999995" y="360" as="targetPoint" />
          </mxGeometry>
        </mxCell>
        <mxCell id="JPwpfQolr1Nf_6mwY6Vp-12" value="" style="rounded=0;whiteSpace=wrap;html=1;" parent="1" vertex="1">
          <mxGeometry x="473.25" y="380" width="17.5" height="40" as="geometry" />
        </mxCell>
        <mxCell id="JPwpfQolr1Nf_6mwY6Vp-15" value="" style="endArrow=classic;html=1;rounded=0;exitX=0.932;exitY=0.038;exitDx=0;exitDy=0;exitPerimeter=0;entryX=0;entryY=0.25;entryDx=0;entryDy=0;" parent="1" source="JPwpfQolr1Nf_6mwY6Vp-10" target="JPwpfQolr1Nf_6mwY6Vp-12" edge="1">
          <mxGeometry width="50" height="50" relative="1" as="geometry">
            <mxPoint x="500" y="520" as="sourcePoint" />
            <mxPoint x="550" y="470" as="targetPoint" />
          </mxGeometry>
        </mxCell>
        <mxCell id="JPwpfQolr1Nf_6mwY6Vp-16" value="1: Ввод данных(логин, пароль)" style="edgeLabel;html=1;align=center;verticalAlign=middle;resizable=0;points=[];" parent="JPwpfQolr1Nf_6mwY6Vp-15" vertex="1" connectable="0">
          <mxGeometry x="0.3075" y="1" relative="1" as="geometry">
            <mxPoint x="-40" y="-9" as="offset" />
          </mxGeometry>
        </mxCell>
        <mxCell id="JPwpfQolr1Nf_6mwY6Vp-17" value="&quot;Неверный логин, пароль&quot;" style="endArrow=open;endSize=12;dashed=1;html=1;rounded=0;entryX=0.946;entryY=0.092;entryDx=0;entryDy=0;entryPerimeter=0;exitX=-0.158;exitY=0.651;exitDx=0;exitDy=0;exitPerimeter=0;" parent="1" source="JPwpfQolr1Nf_6mwY6Vp-12" target="JPwpfQolr1Nf_6mwY6Vp-10" edge="1">
          <mxGeometry x="-0.0319" y="14" width="160" relative="1" as="geometry">
            <mxPoint x="310" y="450" as="sourcePoint" />
            <mxPoint x="470" y="450" as="targetPoint" />
            <mxPoint as="offset" />
          </mxGeometry>
        </mxCell>
        <mxCell id="JPwpfQolr1Nf_6mwY6Vp-20" value="" style="endArrow=classic;html=1;rounded=0;exitX=0.932;exitY=0.038;exitDx=0;exitDy=0;exitPerimeter=0;entryX=0.005;entryY=0.14;entryDx=0;entryDy=0;entryPerimeter=0;" parent="1" target="JPwpfQolr1Nf_6mwY6Vp-24" edge="1">
          <mxGeometry width="50" height="50" relative="1" as="geometry">
            <mxPoint x="263.75" y="468.5" as="sourcePoint" />
            <mxPoint x="850" y="468" as="targetPoint" />
          </mxGeometry>
        </mxCell>
        <mxCell id="JPwpfQolr1Nf_6mwY6Vp-21" value="3: Выбор раздела()" style="edgeLabel;html=1;align=center;verticalAlign=middle;resizable=0;points=[];" parent="JPwpfQolr1Nf_6mwY6Vp-20" vertex="1" connectable="0">
          <mxGeometry x="0.3075" y="1" relative="1" as="geometry">
            <mxPoint x="-183" y="-9" as="offset" />
          </mxGeometry>
        </mxCell>
        <mxCell id="JPwpfQolr1Nf_6mwY6Vp-24" value="" style="rounded=0;whiteSpace=wrap;html=1;" parent="1" vertex="1">
          <mxGeometry x="690" y="450" width="17.5" height="130" as="geometry" />
        </mxCell>
        <mxCell id="JPwpfQolr1Nf_6mwY6Vp-25" value="&quot;Услуга успешно добавлена&quot;" style="endArrow=open;endSize=12;dashed=1;html=1;rounded=0;entryX=1.022;entryY=0.828;entryDx=0;entryDy=0;entryPerimeter=0;exitX=0;exitY=0.75;exitDx=0;exitDy=0;" parent="1" source="JPwpfQolr1Nf_6mwY6Vp-27" target="JPwpfQolr1Nf_6mwY6Vp-10" edge="1">
          <mxGeometry x="-0.0338" y="14" width="160" relative="1" as="geometry">
            <mxPoint x="1017" y="620" as="sourcePoint" />
            <mxPoint x="810" y="621" as="targetPoint" />
            <mxPoint as="offset" />
          </mxGeometry>
        </mxCell>
        <mxCell id="JPwpfQolr1Nf_6mwY6Vp-26" value="4: Ввод данных&lt;div&gt;услуги()&lt;/div&gt;" style="edgeStyle=orthogonalEdgeStyle;orthogonalLoop=1;jettySize=auto;html=1;rounded=0;entryX=1.023;entryY=0.771;entryDx=0;entryDy=0;entryPerimeter=0;" parent="1" target="JPwpfQolr1Nf_6mwY6Vp-24" edge="1">
          <mxGeometry width="100" relative="1" as="geometry">
            <mxPoint x="709.75" y="480" as="sourcePoint" />
            <mxPoint x="719.75" y="550" as="targetPoint" />
            <Array as="points">
              <mxPoint x="709.75" y="481" />
              <mxPoint x="749.75" y="481" />
              <mxPoint x="749.75" y="550" />
            </Array>
          </mxGeometry>
        </mxCell>
        <mxCell id="JPwpfQolr1Nf_6mwY6Vp-27" value="" style="rounded=0;whiteSpace=wrap;html=1;" parent="1" vertex="1">
          <mxGeometry x="852" y="560" width="17.5" height="80" as="geometry" />
        </mxCell>
        <mxCell id="JPwpfQolr1Nf_6mwY6Vp-28" value="" style="edgeStyle=none;orthogonalLoop=1;jettySize=auto;html=1;rounded=0;" parent="1" edge="1">
          <mxGeometry width="100" relative="1" as="geometry">
            <mxPoint x="709.75" y="570" as="sourcePoint" />
            <mxPoint x="849.75" y="570" as="targetPoint" />
            <Array as="points" />
          </mxGeometry>
        </mxCell>
        <mxCell id="JPwpfQolr1Nf_6mwY6Vp-29" value="5: Сохранить" style="edgeLabel;html=1;align=center;verticalAlign=middle;resizable=0;points=[];" parent="JPwpfQolr1Nf_6mwY6Vp-28" vertex="1" connectable="0">
          <mxGeometry x="0.4062" relative="1" as="geometry">
            <mxPoint x="-19" y="-10" as="offset" />
          </mxGeometry>
        </mxCell>
      </root>
    </mxGraphModel>
  </diagram>
</mxfile>
